<svg id="Layer_1" data-name="Layer 1" xmlns="http://www.w3.org/2000/svg" viewBox="0 0 639.65 340.14"><path d="M489.13,0H233.33a24.62,24.62,0,0,0-24.62,24.62h0l.29,290.5a24.61,24.61,0,0,0,24.58,24.63h255.8A24.62,24.62,0,0,0,514,315.14h0l-.29-290.5A24.61,24.61,0,0,0,489.13,0Z" transform="translate(0 0.38)"/><path d="M74.25,0H23.49C10.51,0,0,11,0,24.63l.28,290.5c0,13.61,10.5,24.63,23.48,24.63H74.52c13,0,23.49-11,23.49-24.63l-.28-290.5C97.73,11,87.23,0,74.25,0Z" transform="translate(0 0.38)"/><path d="M152.83-.38h.37c-13.23,0-24,11-24,24.63l.28,290.5c0,13.61,10.72,24.63,24,24.63h-.37c13.23,0,23.94-11,23.94-24.63l-.28-290.5C176.77,10.62,166.06-.38,152.83-.38Z" transform="translate(0 0.38)"/><path d="M615.89-.38H565.13c-13,0-23.49,11-23.49,24.63l.28,290.5c0,13.61,10.5,24.63,23.48,24.63h50.76c13,0,23.49-11,23.49-24.63l-.28-290.5C639.37,10.62,628.87-.38,615.89-.38Z" transform="translate(0 0.38)"/></svg>