<svg id="Layer_1" data-name="Layer 1" xmlns="http://www.w3.org/2000/svg" viewBox="0 0 639.73 340.14"><path d="M466.18,0h-254a24.62,24.62,0,0,0-24.65,24.59v0l.28,290.5a24.62,24.62,0,0,0,24.61,24.63h254a24.62,24.62,0,0,0,24.63-24.61v0l-.29-290.5A24.62,24.62,0,0,0,466.18,0ZM614.8,0H557.14a24.62,24.62,0,0,0-24.63,24.61v0l.29,290.5a24.62,24.62,0,0,0,24.61,24.63H615.1a24.62,24.62,0,0,0,24.63-24.61v0l-.29-290.5A24.62,24.62,0,0,0,614.83,0ZM116.63,0H117C103.77,0,93,11,93,24.63l.28,290.5c0,13.61,10.72,24.63,24,24.63h-.37c13.23,0,23.94-11,23.94-24.63l-.28-290.5C140.57,11,129.86,0,116.63,0Z" transform="translate(0 0.38)"/><path d="M23.63-.38H24c-13.23,0-24,11-24,24.63l.28,290.5c0,13.61,10.72,24.63,24,24.63h-.37c13.23,0,23.94-11,23.94-24.63l-.28-290.5C47.57,10.62,36.86-.38,23.63-.38Z" transform="translate(0 0.38)"/></svg>