<svg id="Layer_1" data-name="Layer 1" xmlns="http://www.w3.org/2000/svg" viewBox="0 0 32 24"><defs><style>.cls-1,.cls-2{fill:none;}.cls-1{stroke:#000;stroke-miterlimit:10;stroke-width:2px;}</style></defs><path class="cls-1" d="M29.5,23H2.5A1.54,1.54,0,0,1,1,21.5V2.5A1.54,1.54,0,0,1,2.5,1h27A1.54,1.54,0,0,1,31,2.5v19A1.54,1.54,0,0,1,29.5,23Z"/><path class="cls-2" d="M-1,0"/><path class="cls-2" d="M24,5.8h6V22H24Z"/><path d="M2,4.8H30v1H2Zm8.3,1h1V22h-1Zm10.4,0h1V22h-1Z"/><path class="cls-2" d="M12,5.8H23V22H12Z"/><path class="cls-2" d="M9,5.8h2V22H9Z"/></svg>