<svg id="Layer_1" data-name="Layer 1" xmlns="http://www.w3.org/2000/svg" viewBox="0 0 639.73 339.76"><path d="M373.74,0h-254A24.62,24.62,0,0,0,95.09,24.63l.28,290.5A24.62,24.62,0,0,0,120,339.76H374a24.62,24.62,0,0,0,24.63-24.63l-.29-290.5A24.62,24.62,0,0,0,373.74,0ZM25.68,0h-.12C11.44,0,0,11,0,24.63l.3,290.5c0,13.61,11.44,24.63,25.56,24.63H26c14.12,0,25.56-11,25.56-24.63l-.3-290.5C51.24,11,39.8,0,25.68,0ZM522.36,0H464.7a24.62,24.62,0,0,0-24.63,24.63l.29,290.5A24.62,24.62,0,0,0,465,339.76h57.66a24.62,24.62,0,0,0,24.63-24.63L547,24.63A24.62,24.62,0,0,0,522.36,0Zm93.15,0h.37c-13.23,0-24,11-24,24.63l.28,290.5c0,13.61,10.72,24.63,23.95,24.63h-.37c13.23,0,23.94-11,23.94-24.63l-.28-290.5C639.45,11,628.74,0,615.51,0Z"/></svg>