<svg id="Layer_1" data-name="Layer 1" xmlns="http://www.w3.org/2000/svg" viewBox="0 0 639.57 339.76"><path d="M116.14,0H24.87A24.6,24.6,0,0,0,.17,24.6l.3,290.56a24.58,24.58,0,0,0,24.6,24.6h91.37a24.58,24.58,0,0,0,24.6-24.6l-.3-290.56A24.52,24.52,0,0,0,116.14,0Z" transform="translate(-0.17 0)"/><path d="M283.36,0H192.09a24.6,24.6,0,0,0-24.7,24.6l.3,290.56a24.58,24.58,0,0,0,24.6,24.6h91.37a24.58,24.58,0,0,0,24.6-24.6L308,24.6A24.52,24.52,0,0,0,283.36,0Z" transform="translate(-0.17 0)"/><path d="M449.59,0H358.31a24.6,24.6,0,0,0-24.7,24.6l.3,290.56a24.58,24.58,0,0,0,24.6,24.6h91.38a24.58,24.58,0,0,0,24.6-24.6l-.3-290.56A24.52,24.52,0,0,0,449.59,0Z" transform="translate(-0.17 0)"/><path d="M614.83,0H523.56a24.6,24.6,0,0,0-24.7,24.6l.3,290.56a24.58,24.58,0,0,0,24.6,24.6h91.37a24.58,24.58,0,0,0,24.6-24.6l-.3-290.56A24.52,24.52,0,0,0,614.83,0Z" transform="translate(-0.17 0)"/></svg>