<?xml version="1.0" encoding="utf-8"?>
<!-- Generator: Adobe Illustrator 25.0.1, SVG Export Plug-In . SVG Version: 6.00 Build 0)  -->
<svg version="1.1" id="Layer_1" xmlns="http://www.w3.org/2000/svg" xmlns:xlink="http://www.w3.org/1999/xlink" x="0px" y="0px"
	 viewBox="0 0 32 24" style="enable-background:new 0 0 32 24;" xml:space="preserve">
<style type="text/css">
	.st0{fill:none;}
</style>
<path class="st0" d="M-1,0"/>
<path class="st0" d="M24,5.8h6V22h-6V5.8z"/>
<path class="st0" d="M12,5.8h11V22H12V5.8z"/>
<path class="st0" d="M9,5.8h2V22H9V5.8z"/>
<g>
	<path d="M32,2.5C32,1.1,30.9,0,29.5,0h-27C1.1,0,0,1.1,0,2.5v1.8h32V2.5z"/>
	<path d="M0,5.4v16.1C0,22.9,1.1,24,2.5,24h1.8V5.4H0z"/>
	<rect x="5.2" y="5.4" width="14.5" height="18.6"/>
	<rect x="20.7" y="5.4" width="6.1" height="18.6"/>
	<path d="M27.8,5.4V24h1.7c1.4,0,2.5-1.1,2.5-2.5V5.4H27.8z"/>
</g>
</svg>
