<?xml version="1.0" encoding="utf-8"?>
<!-- Generator: Adobe Illustrator 25.0.1, SVG Export Plug-In . SVG Version: 6.00 Build 0)  -->
<svg version="1.1" id="Layer_1" xmlns="http://www.w3.org/2000/svg" xmlns:xlink="http://www.w3.org/1999/xlink" x="0px" y="0px"
	 viewBox="0 0 32 24" style="enable-background:new 0 0 32 24;" xml:space="preserve">
<style type="text/css">
	.st0{fill:none;}
</style>
<g>
	<path d="M29.5,24h-27C1.1,24,0,22.9,0,21.5v-19C0,1.1,1.1,0,2.5,0h27C30.9,0,32,1.1,32,2.5v19C32,22.9,30.9,24,29.5,24z M2.5,2
		C2.2,2,2,2.2,2,2.5v19C2,21.8,2.2,22,2.5,22h27c0.3,0,0.5-0.2,0.5-0.5v-19C30,2.2,29.8,2,29.5,2H2.5z"/>
</g>
<path class="st0" d="M-1,0"/>
<path class="st0" d="M24,5.8h6V22h-6V5.8z"/>
<path d="M19.7,5.8h1V22h-1V5.8z M2,4.8h28v1H2V4.8z M26.9,5.8h1V22h-1V5.8z"/>
<path class="st0" d="M12,5.8h11V22H12V5.8z"/>
<path class="st0" d="M9,5.8h2V22H9V5.8z"/>
</svg>
