<?xml version="1.0" encoding="utf-8"?>
<!-- Generator: Adobe Illustrator 25.0.1, SVG Export Plug-In . SVG Version: 6.00 Build 0)  -->
<svg version="1.1" id="Layer_1" xmlns="http://www.w3.org/2000/svg" xmlns:xlink="http://www.w3.org/1999/xlink" x="0px" y="0px"
	 viewBox="0 0 32 24" style="enable-background:new 0 0 32 24;" xml:space="preserve">
<style type="text/css">
	.st0{fill:none;stroke:#000000;stroke-width:2;stroke-miterlimit:10;}
	.st1{fill:none;}
</style>
<path class="st0" d="M29.5,23h-27C1.7,23,1,22.3,1,21.5v-19C1,1.7,1.7,1,2.5,1h27C30.3,1,31,1.7,31,2.5v19C31,22.3,30.3,23,29.5,23z
	"/>
<path class="st1" d="M-1,0"/>
<path class="st1" d="M24,5.8h6V22h-6V5.8z"/>
<path d="M2,4.8h28v1H2V4.8z M10.3,5.8h1V22h-1V5.8z M20.7,5.8h1V22h-1V5.8z"/>
<path class="st1" d="M12,5.8h11V22H12V5.8z"/>
<path class="st1" d="M9,5.8h2V22H9V5.8z"/>
</svg>
