<svg id="Layer_1" data-name="Layer 1" xmlns="http://www.w3.org/2000/svg" viewBox="0 0 32 24"><defs><style>.cls-1{fill:none;}</style></defs><path d="M29.5,24H2.5A2.48,2.48,0,0,1,0,21.5V2.5A2.48,2.48,0,0,1,2.5,0h27A2.48,2.48,0,0,1,32,2.5v19A2.48,2.48,0,0,1,29.5,24ZM2.5,2a.47.47,0,0,0-.5.5v19a.47.47,0,0,0,.5.5h27a.47.47,0,0,0,.5-.5V2.5a.47.47,0,0,0-.5-.5Z"/><path class="cls-1" d="M-1,0"/><path class="cls-1" d="M24,5.8h6V22H24Z"/><path d="M19.7,5.8h1V22h-1ZM2,4.8H30v1H2Zm24.9,1h1V22h-1Z"/><path class="cls-1" d="M12,5.8H23V22H12Z"/><path class="cls-1" d="M9,5.8h2V22H9Z"/></svg>